<svg xmlns="http://www.w3.org/2000/svg" viewBox="0 0 1440 320"><path fill="#00cba9" fill-opacity="0.8" d="M0,256L34.3,250.7C68.6,245,137,235,206,202.7C274.3,171,343,117,411,96C480,75,549,85,617,122.7C685.7,160,754,224,823,229.3C891.4,235,960,181,1029,181.3C1097.1,181,1166,235,1234,250.7C1302.9,267,1371,245,1406,234.7L1440,224L1440,320L1405.7,320C1371.4,320,1303,320,1234,320C1165.7,320,1097,320,1029,320C960,320,891,320,823,320C754.3,320,686,320,617,320C548.6,320,480,320,411,320C342.9,320,274,320,206,320C137.1,320,69,320,34,320L0,320Z"></path></svg>